<svg width="84" height="30" viewBox="0 0 84 30" fill="none" xmlns="http://www.w3.org/2000/svg">
<path d="M20 13L1.00947e-06 3.45299L-1.00947e-06 26.547L20 17L20 13ZM83.4142 16.4142C84.1953 15.6332 84.1953 14.3668 83.4142 13.5858L70.6863 0.857871C69.9052 0.0768217 68.6389 0.0768216 67.8579 0.85787C67.0768 1.63892 67.0768 2.90525 67.8579 3.6863L79.1716 15L67.8579 26.3137C67.0768 27.0948 67.0768 28.3611 67.8579 29.1421C68.6389 29.9232 69.9052 29.9232 70.6863 29.1421L83.4142 16.4142ZM18 15L18 17L82 17L82 15L82 13L18 13L18 15Z" fill="#1978E5"/>
</svg>
