<svg width="141" height="141" viewBox="0 0 141 141" fill="none" xmlns="http://www.w3.org/2000/svg">
<g clip-path="url(#clip0_212_12877)">
<path d="M122.889 18L93.7223 70.5H122.889L82.6915 111.835C79.092 115.442 74.8025 118.286 70.079 120.198C65.3556 122.11 60.2952 123.051 55.2003 122.963C50.1053 122.875 45.0802 121.762 40.4253 119.689C35.7704 117.615 31.5812 114.625 28.1079 110.896C24.6346 107.168 21.9485 102.777 20.2102 97.9872C18.4718 93.1971 17.7167 88.1058 17.9902 83.0174C18.2636 77.929 19.5599 72.948 21.8016 68.3718C24.0433 63.7956 27.1845 59.7183 31.0373 56.3833L76.2223 18L70.389 47.1667L122.889 18Z" stroke="black" stroke-width="11.6667" stroke-linecap="round" stroke-linejoin="round"/>
<path d="M41.2227 85.0833C41.2227 88.9511 42.7591 92.6604 45.494 95.3953C48.2289 98.1302 51.9382 99.6667 55.806 99.6667C59.6737 99.6667 63.3831 98.1302 66.118 95.3953C68.8529 92.6604 70.3893 88.9511 70.3893 85.0833C70.3893 81.2156 68.8529 77.5063 66.118 74.7714C63.3831 72.0365 59.6737 70.5 55.806 70.5C51.9382 70.5 48.2289 72.0365 45.494 74.7714C42.7591 77.5063 41.2227 81.2156 41.2227 85.0833Z" stroke="black" stroke-width="11.6667" stroke-linecap="round" stroke-linejoin="round"/>
</g>
<defs>
<clipPath id="clip0_212_12877">
<rect width="140" height="140" fill="white" transform="translate(0.389282 0.5)"/>
</clipPath>
</defs>
</svg>
