<svg width="164" height="121" viewBox="0 0 164 121" fill="none" xmlns="http://www.w3.org/2000/svg">
<path d="M136.015 36.5746C136.015 56.4981 119.864 72.6493 99.9407 72.6493C93.3698 72.6493 87.2096 70.8918 81.9034 67.8223C76.5972 70.8918 70.437 72.6493 63.8661 72.6493C53.4057 72.6493 43.9855 68.1968 37.3963 61.084H96.2042C97.4503 61.0839 98.6081 60.4409 99.2666 59.3831L109.453 43.0185C109.891 42.3149 110.655 41.8801 111.483 41.8624L119.496 41.691C120.927 41.6604 122.364 41.4504 123.691 40.8802C124.675 40.4576 125.85 39.8712 126.782 39.1616C127.706 38.4578 128.43 37.6026 128.43 36.6361C128.43 35.6695 127.706 34.8143 126.782 34.1106C125.85 33.4009 124.675 32.8145 123.691 32.3919C122.364 31.8218 120.927 31.612 119.496 31.5814L111.483 31.41C110.655 31.3923 109.891 30.9572 109.453 30.2537L99.2666 13.8893C98.6081 12.8314 97.4503 12.1882 96.2042 12.1882L37.2833 12.1882C43.8775 5.00391 53.3456 0.5 63.8661 0.5C70.437 0.5 76.5973 2.25718 81.9034 5.32667C87.2096 2.25718 93.3699 0.500002 99.9407 0.500002C119.864 0.500002 136.015 16.6512 136.015 36.5746Z" fill="#112D6C"/>
<path d="M98.6619 30.6836C99.0464 31.7204 98.2793 32.8227 97.1735 32.8227H27.9846C28.4417 28.4 29.6979 24.2147 31.6062 20.4131H66.4557C66.8997 20.413 67.3131 20.1862 67.5514 19.8116L70.7071 15.7186C71.0187 15.229 71.5728 14.9486 72.1518 14.9872L92.0106 16.311C92.6344 16.3526 93.1759 16.7566 93.3933 17.3428L98.6619 30.6836Z" fill="#112D6C"/>
<path d="M97.1735 40.4706C98.2793 40.4706 99.0463 41.5732 98.6619 42.61L93.3933 55.9508C93.1759 56.537 92.6344 56.941 92.0106 56.9826L72.1518 58.3064C71.5727 58.345 71.0187 58.0644 70.7071 57.5747L67.5514 53.4817C67.3131 53.1071 66.8996 52.8802 66.4557 52.8802H31.6789C29.7507 49.0816 28.4753 44.896 28.0001 40.4706L97.1735 40.4706Z" fill="#112D6C"/>
<path d="M152.086 112.076C151.483 114.456 150.881 116.76 150.319 119.073C150.173 119.677 149.911 119.921 149.244 119.901C147.597 119.852 145.947 119.853 144.3 119.9C143.631 119.92 143.399 119.675 143.245 119.063C142.37 115.569 141.448 112.087 140.538 108.602C140.464 108.318 140.359 108.041 140.065 107.781C139.893 111.777 139.721 115.772 139.546 119.824C136.523 119.824 133.589 119.824 130.548 119.824C130.661 117.743 130.759 115.714 130.883 113.686C131.105 110.065 131.344 106.444 131.575 102.823C131.756 99.993 131.945 97.1634 132.107 94.3324C132.134 93.8687 132.291 93.6901 132.774 93.692C136.101 93.705 139.429 93.7148 142.756 93.6849C143.42 93.679 143.504 94.0701 143.617 94.5268C144.557 98.3192 145.501 102.111 146.446 105.902C146.51 106.161 146.596 106.415 146.755 106.951C146.925 106.488 147.018 106.291 147.07 106.084C148.024 102.264 148.995 98.4468 149.907 94.6165C150.085 93.8678 150.416 93.6697 151.17 93.6802C154.247 93.7231 157.327 93.7332 160.404 93.6752C161.248 93.6593 161.475 93.9606 161.512 94.6996C161.63 97.0446 161.783 99.3879 161.929 101.731C162.285 107.422 162.631 113.114 163.018 118.803C163.073 119.624 162.899 119.931 161.987 119.906C159.656 119.842 157.322 119.845 154.991 119.906C154.143 119.928 153.967 119.648 153.946 118.871C153.856 115.396 153.698 111.921 153.557 108.447C153.547 108.196 153.487 107.947 153.23 107.689C152.854 109.127 152.478 110.564 152.086 112.076Z" fill="#112D6C"/>
<path d="M100.498 100.635C99.8102 100.679 99.1483 100.653 98.4864 100.626C96.0995 100.529 93.7133 100.39 91.3254 100.353C90.1465 100.334 89.703 101.001 90.148 102.049C90.2512 102.292 90.7814 102.433 91.1364 102.488C92.9752 102.771 94.8423 102.913 96.6589 103.291C99.1609 103.812 101.367 104.937 102.268 107.471C103.57 111.133 103.274 114.696 100.898 117.904C100.433 118.532 99.6441 119.072 98.891 119.32C97.4008 119.81 95.8451 120.285 94.2915 120.382C89.9094 120.655 85.5346 120.483 81.2135 119.568C80.5528 119.429 80.429 119.214 80.552 118.595C80.9085 116.8 81.2269 114.996 81.4967 113.187C81.5965 112.518 81.8396 112.405 82.477 112.564C85.8892 113.415 89.3512 113.493 92.8469 113.217C93.8386 113.139 93.6549 112.577 93.7075 111.979C93.7686 111.283 93.4708 111.149 92.8139 111.07C90.5076 110.793 88.1832 110.551 85.9216 110.052C82.9336 109.392 81.4051 107.307 80.9836 104.411C80.6866 102.37 80.797 100.341 81.3 98.3279C81.8941 95.9496 83.3701 94.4405 85.7493 93.7272C88.3866 92.9366 91.093 92.9128 93.7917 93.1013C96.1101 93.2632 98.4113 93.6538 100.724 93.91C101.38 93.9827 101.557 94.2603 101.451 94.8743C101.123 96.7676 100.83 98.6666 100.498 100.635Z" fill="#112D6C"/>
<path d="M24.8609 106.735C24.8609 102.705 24.8838 98.7663 24.8426 94.8283C24.8337 93.9773 25.0306 93.6707 25.9667 93.6779C31.5666 93.7207 37.167 93.699 42.7672 93.699C43.0428 93.699 43.3183 93.699 43.7369 93.699C43.6625 94.2759 43.6103 94.7746 43.532 95.2693C43.2981 96.7468 43.026 98.2192 42.8273 99.7011C42.7448 100.316 42.4906 100.507 41.8681 100.499C39.4728 100.467 37.0769 100.486 34.6813 100.486C34.3454 100.486 34.0096 100.486 33.5368 100.486C33.5368 101.506 33.4949 102.443 33.5736 103.37C33.5887 103.548 34.0772 103.818 34.351 103.822C36.6216 103.859 38.8935 103.866 41.1641 103.829C41.8448 103.819 42.0997 103.996 42.0813 104.699C42.0359 106.431 42.0664 108.166 42.0664 110.02C39.1998 110.02 36.4219 110.02 33.5391 110.02C33.5391 110.953 33.4894 111.773 33.5766 112.579C33.5966 112.764 34.0863 113.034 34.3628 113.037C37.1936 113.071 40.025 113.057 42.8562 113.06C43.1906 113.061 43.5249 113.087 43.9116 113.104C43.9116 115.365 43.9116 117.549 43.9116 119.809C37.5972 119.809 31.3033 119.809 24.8608 119.809C24.8608 115.474 24.8608 111.15 24.8609 106.735Z" fill="#112D6C"/>
<path d="M70.6825 100.485C69.3869 100.485 68.1837 100.485 66.8749 100.485C66.8749 100.968 66.8749 101.326 66.8749 101.684C66.8749 107.359 66.8753 113.034 66.8745 118.71C66.8743 119.884 66.8723 119.885 65.6382 119.885C63.2157 119.885 60.7932 119.885 58.2613 119.885C58.2613 113.438 58.2613 107.049 58.2613 100.525C56.1601 100.525 54.1632 100.525 52.1039 100.525C52.1039 98.2115 52.1039 96.033 52.1039 93.7597C52.4195 93.7384 52.7165 93.7009 53.0135 93.7008C59.357 93.6974 65.7005 93.7089 72.0438 93.6839C72.7885 93.6809 73.0912 93.8415 73.0611 94.638C73 96.2529 72.9985 97.8733 73.0611 99.4882C73.0934 100.322 72.7863 100.587 71.9866 100.493C71.5881 100.446 71.1791 100.485 70.6825 100.485Z" fill="#112D6C"/>
<path d="M15.2111 101.239C15.2108 105.113 15.2553 108.896 15.184 112.677C15.1613 113.878 15.0042 115.133 14.6035 116.258C13.7441 118.671 11.7517 119.725 9.26137 119.834C6.99627 119.932 4.72397 119.883 2.45505 119.869C2.24102 119.867 1.86203 119.668 1.84028 119.521C1.5295 117.42 1.26708 115.311 0.973267 113.053C2.27596 113.053 3.41815 113.069 4.55973 113.049C6.29373 113.02 6.53296 112.77 6.5338 111.055C6.53535 107.883 6.53429 104.71 6.53432 101.538C6.53432 101.237 6.53432 100.936 6.53432 100.485C5.57274 100.485 4.6818 100.455 3.79429 100.495C3.17396 100.524 2.98217 100.288 2.99104 99.7004C3.01777 97.9316 3.00711 96.162 2.99609 94.3928C2.99345 93.9669 3.07684 93.6938 3.60035 93.6951C7.42028 93.7047 11.2402 93.7002 15.2111 93.7002C15.2111 96.2304 15.2111 98.6887 15.2111 101.239Z" fill="#112D6C"/>
<path d="M112.389 111.312C112.389 105.433 112.389 99.6445 112.389 93.8069C112.669 93.7624 112.872 93.7024 113.076 93.7018C115.468 93.6952 117.861 93.7117 120.254 93.6872C120.838 93.6812 121.076 93.825 121.074 94.45C121.056 102.713 121.062 110.977 121.059 119.241C121.059 119.416 121.021 119.592 120.994 119.823C118.145 119.823 115.337 119.823 112.389 119.823C112.389 116.993 112.389 114.199 112.389 111.312Z" fill="#112D6C"/>
</svg>
