<svg width="140" height="140" viewBox="0 0 140 140" fill="none" xmlns="http://www.w3.org/2000/svg">
<g clip-path="url(#clip0_212_12898)">
<path d="M46.6666 52.5H93.3333" stroke="black" stroke-width="11.6667" stroke-linecap="round" stroke-linejoin="round"/>
<path d="M46.6666 75.8333H67.0833" stroke="black" stroke-width="11.6667" stroke-linecap="round" stroke-linejoin="round"/>
<path d="M61.25 113.75L52.5 105H35C30.3587 105 25.9075 103.156 22.6256 99.8743C19.3437 96.5924 17.5 92.1412 17.5 87.4999V40.8333C17.5 36.192 19.3437 31.7408 22.6256 28.4589C25.9075 25.177 30.3587 23.3333 35 23.3333H105C109.641 23.3333 114.092 25.177 117.374 28.4589C120.656 31.7408 122.5 36.192 122.5 40.8333V64.1666" stroke="black" stroke-width="11.6667" stroke-linecap="round" stroke-linejoin="round"/>
<path d="M105 128.331L124.542 109.174C125.74 108.012 126.693 106.62 127.345 105.083C127.997 103.546 128.334 101.893 128.337 100.224C128.34 98.5537 128.008 96.9003 127.361 95.3608C126.714 93.8213 125.765 92.4271 124.571 91.2603C122.133 88.8764 118.861 87.5387 115.452 87.5322C112.042 87.5256 108.765 88.8508 106.318 91.2253L105.012 92.5086L103.711 91.2253C101.274 88.8432 98.0027 87.5066 94.5947 87.5C91.1866 87.4935 87.9106 88.8176 85.4642 91.1903C84.2655 92.3528 83.3118 93.7436 82.6594 95.2808C82.0071 96.8179 81.6693 98.4702 81.666 100.14C81.6628 101.81 81.9941 103.463 82.6404 105.003C83.2868 106.543 84.235 107.937 85.4292 109.104L105 128.331Z" stroke="black" stroke-width="11.6667" stroke-linecap="round" stroke-linejoin="round"/>
</g>
<defs>
<clipPath id="clip0_212_12898">
<rect width="140" height="140" fill="white"/>
</clipPath>
</defs>
</svg>
