<svg width="29" height="23" viewBox="0 0 29 23" fill="none" xmlns="http://www.w3.org/2000/svg">
<g filter="url(#filter0_d_209_7434)">
<g clip-path="url(#clip0_209_7434)">
<mask id="mask0_209_7434" style="mask-type:luminance" maskUnits="userSpaceOnUse" x="2" y="1" width="25" height="18">
<rect x="2.5" y="1" width="24" height="18" fill="white"/>
</mask>
<g mask="url(#mask0_209_7434)">
<path fill-rule="evenodd" clip-rule="evenodd" d="M2.5 1V19H26.5V1H2.5Z" fill="#FBCD17"/>
<path fill-rule="evenodd" clip-rule="evenodd" d="M2.5 1V7H26.5V1H2.5Z" fill="#73BE4A"/>
<path fill-rule="evenodd" clip-rule="evenodd" d="M2.5 13V19H26.5V13H2.5Z" fill="#73BE4A"/>
<path fill-rule="evenodd" clip-rule="evenodd" d="M2.5 1V19L10 10L2.5 1Z" fill="#C51918"/>
<path fill-rule="evenodd" clip-rule="evenodd" d="M15.2513 11.403L13.8483 12.25L14.1684 10.5972L13 9.36021L14.582 9.29332L15.2513 7.75L15.9207 9.29332H17.5L16.3343 10.5972L16.6853 12.25L15.2513 11.403Z" fill="#272727"/>
<path fill-rule="evenodd" clip-rule="evenodd" d="M21.2513 11.403L19.8483 12.25L20.1684 10.5972L19 9.36021L20.582 9.29332L21.2513 7.75L21.9207 9.29332H23.5L22.3343 10.5972L22.6853 12.25L21.2513 11.403Z" fill="#272727"/>
</g>
</g>
<rect x="2.875" y="1.375" width="23.25" height="17.25" rx="1.125" stroke="black" stroke-opacity="0.1" stroke-width="0.75" style="mix-blend-mode:multiply"/>
</g>
<defs>
<filter id="filter0_d_209_7434" x="0.25" y="0.25" width="28.5" height="22.5" filterUnits="userSpaceOnUse" color-interpolation-filters="sRGB">
<feFlood flood-opacity="0" result="BackgroundImageFix"/>
<feColorMatrix in="SourceAlpha" type="matrix" values="0 0 0 0 0 0 0 0 0 0 0 0 0 0 0 0 0 0 127 0" result="hardAlpha"/>
<feOffset dy="1.5"/>
<feGaussianBlur stdDeviation="1.125"/>
<feColorMatrix type="matrix" values="0 0 0 0 0 0 0 0 0 0 0 0 0 0 0 0 0 0 0.1 0"/>
<feBlend mode="normal" in2="BackgroundImageFix" result="effect1_dropShadow_209_7434"/>
<feBlend mode="normal" in="SourceGraphic" in2="effect1_dropShadow_209_7434" result="shape"/>
</filter>
<clipPath id="clip0_209_7434">
<rect x="2.5" y="1" width="24" height="18" rx="1.5" fill="white"/>
</clipPath>
</defs>
</svg>
