<svg width="48" height="48" viewBox="0 0 48 48" fill="none" xmlns="http://www.w3.org/2000/svg">
<g clip-path="url(#clip0_209_7257)">
<path d="M47.9999 24C47.9999 10.7453 37.2547 0 23.9999 0C10.7452 0 -6.10352e-05 10.7453 -6.10352e-05 24C-6.10352e-05 35.255 7.74906 44.6995 18.2025 47.2934V31.3344H13.2537V24H18.2025V20.8397C18.2025 12.671 21.8995 8.8848 29.9193 8.8848C31.4399 8.8848 34.0636 9.18336 35.1369 9.48096V16.129C34.5705 16.0694 33.5865 16.0397 32.3644 16.0397C28.4294 16.0397 26.9087 17.5306 26.9087 21.4061V24H34.7481L33.4012 31.3344H26.9087V47.8243C38.7926 46.3891 48.0009 36.2707 48.0009 24H47.9999Z" fill="#0866FF"/>
<path d="M33.4003 31.3344L34.7471 24H26.9078V21.406C26.9078 17.5305 28.4284 16.0396 32.3635 16.0396C33.5855 16.0396 34.5695 16.0694 35.1359 16.1289V9.48093C34.0627 9.18237 31.439 8.88477 29.9183 8.88477C21.8985 8.88477 18.2015 12.671 18.2015 20.8396V24H13.2527V31.3344H18.2015V47.2934C20.0582 47.7542 22.0003 48 23.999 48C24.983 48 25.9535 47.9395 26.9068 47.8243V31.3344H33.3993H33.4003Z" fill="white"/>
</g>
<defs>
<clipPath id="clip0_209_7257">
<rect width="48" height="48" fill="white"/>
</clipPath>
</defs>
</svg>
