<svg width="256" height="190" viewBox="0 0 256 190" fill="none" xmlns="http://www.w3.org/2000/svg">
<path d="M212.92 57.3859C212.92 88.7085 187.528 114.1 156.205 114.1C145.875 114.1 136.19 111.338 127.848 106.512C119.506 111.338 109.821 114.1 99.4909 114.1C83.0456 114.1 68.2357 107.1 57.8766 95.9181H150.331C152.29 95.918 154.11 94.9071 155.146 93.2441L171.16 67.5165C171.849 66.4105 173.049 65.7269 174.352 65.699L186.95 65.4296C189.199 65.3815 191.458 65.0512 193.544 64.1549C195.091 63.4905 196.939 62.5686 198.404 61.4529C199.857 60.3465 200.995 59.0021 200.995 57.4825C200.995 55.9629 199.857 54.6185 198.404 53.512C196.939 52.3963 195.091 51.4744 193.544 50.8101C191.458 49.9137 189.199 49.5839 186.95 49.5358L174.352 49.2664C173.049 49.2385 171.849 48.5545 171.16 47.4484L155.146 21.7213C154.11 20.0581 152.29 19.0469 150.331 19.0468L57.6989 19.0468C68.066 7.75213 82.9512 0.671326 99.4909 0.671326C109.821 0.671326 119.506 3.43387 127.848 8.25956C136.19 3.43387 145.875 0.671328 156.205 0.671328C187.528 0.671328 212.92 26.0633 212.92 57.3859Z" fill="#112D6C"/>
<path d="M154.195 48.1244C154.799 49.7543 153.593 51.4873 151.855 51.4873L43.08 51.4873C43.7985 44.5342 45.7735 37.9543 48.7736 31.9775H103.562C104.26 31.9775 104.91 31.6209 105.285 31.032L110.246 24.5971C110.736 23.8275 111.607 23.3866 112.517 23.4473L143.738 25.5285C144.719 25.5939 145.57 26.229 145.912 27.1506L154.195 48.1244Z" fill="#112D6C"/>
<path d="M151.855 63.5108C153.593 63.5109 154.799 65.2443 154.195 66.8743L145.912 87.848C145.57 88.7696 144.719 89.4047 143.738 89.4701L112.517 91.5513C111.607 91.612 110.736 91.1709 110.246 90.4011L105.285 83.9662C104.91 83.3774 104.26 83.0207 103.562 83.0206H48.8879C45.8566 77.0486 43.8515 70.4682 43.1044 63.5108L151.855 63.5108Z" fill="#112D6C"/>
<path d="M238.185 176.084C237.237 179.827 236.29 183.448 235.408 187.085C235.177 188.035 234.766 188.419 233.717 188.387C231.128 188.31 228.534 188.312 225.945 188.386C224.892 188.416 224.528 188.031 224.287 187.069C222.91 181.577 221.461 176.102 220.03 170.624C219.913 170.176 219.749 169.741 219.287 169.332C219.016 175.614 218.746 181.896 218.471 188.266C213.717 188.266 209.106 188.266 204.325 188.266C204.502 184.994 204.656 181.804 204.851 178.617C205.201 172.923 205.576 167.231 205.939 161.538C206.224 157.089 206.521 152.64 206.776 148.189C206.818 147.46 207.065 147.18 207.824 147.183C213.055 147.203 218.286 147.218 223.517 147.171C224.561 147.162 224.693 147.777 224.871 148.495C226.349 154.457 227.832 160.419 229.318 166.379C229.419 166.786 229.554 167.184 229.804 168.027C230.071 167.3 230.218 166.99 230.299 166.665C231.8 160.658 233.325 154.658 234.759 148.636C235.039 147.459 235.559 147.147 236.744 147.164C241.583 147.231 246.425 147.247 251.263 147.156C252.589 147.131 252.946 147.605 253.004 148.767C253.189 152.453 253.43 156.137 253.66 159.822C254.219 168.768 254.764 177.716 255.371 186.66C255.459 187.951 255.185 188.435 253.75 188.395C250.087 188.295 246.417 188.3 242.753 188.395C241.419 188.429 241.142 187.989 241.11 186.768C240.968 181.304 240.719 175.842 240.498 170.379C240.483 169.985 240.387 169.593 239.984 169.188C239.393 171.448 238.802 173.708 238.185 176.084Z" fill="#112D6C"/>
<path d="M157.081 158.098C156 158.168 154.96 158.126 153.919 158.084C150.166 157.931 146.415 157.713 142.661 157.654C140.807 157.625 140.11 158.673 140.81 160.321C140.972 160.703 141.806 160.925 142.364 161.011C145.255 161.457 148.19 161.679 151.046 162.273C154.979 163.092 158.448 164.861 159.864 168.845C161.911 174.603 161.446 180.204 157.71 185.247C156.979 186.234 155.739 187.083 154.555 187.473C152.212 188.244 149.766 188.991 147.324 189.143C140.435 189.572 133.557 189.302 126.764 187.864C125.725 187.644 125.53 187.308 125.724 186.334C126.284 183.512 126.785 180.676 127.209 177.832C127.366 176.779 127.748 176.603 128.75 176.853C134.114 178.191 139.557 178.312 145.053 177.879C146.612 177.756 146.323 176.873 146.406 175.933C146.502 174.839 146.034 174.627 145.001 174.503C141.375 174.068 137.721 173.687 134.165 172.903C129.468 171.866 127.065 168.588 126.402 164.035C125.935 160.826 126.109 157.636 126.899 154.471C127.833 150.732 130.154 148.359 133.894 147.238C138.041 145.995 142.295 145.958 146.538 146.254C150.183 146.509 153.801 147.123 157.437 147.525C158.469 147.64 158.747 148.076 158.58 149.041C158.064 152.018 157.604 155.003 157.081 158.098Z" fill="#112D6C"/>
<path d="M38.1689 167.687C38.169 161.352 38.205 155.16 38.1402 148.969C38.1262 147.631 38.4358 147.149 39.9074 147.16C48.7113 147.228 57.516 147.194 66.3203 147.193C66.7535 147.193 67.1868 147.193 67.8448 147.193C67.7278 148.1 67.6458 148.884 67.5227 149.662C67.155 151.985 66.7272 154.3 66.4147 156.63C66.2851 157.596 65.8854 157.896 64.9067 157.883C61.141 157.834 57.3743 157.864 53.608 157.864C53.08 157.864 52.552 157.864 51.8088 157.864C51.8088 159.467 51.7429 160.94 51.8666 162.398C51.8903 162.677 52.6583 163.101 53.0888 163.108C56.6586 163.166 60.2302 163.177 63.8 163.12C64.8701 163.103 65.2709 163.381 65.2419 164.487C65.1706 167.211 65.2186 169.938 65.2186 172.852C60.7119 172.852 56.3445 172.852 51.8123 172.852C51.8123 174.319 51.7342 175.609 51.8713 176.876C51.9027 177.167 52.6727 177.591 53.1073 177.596C57.5577 177.649 62.0091 177.627 66.4602 177.632C66.9859 177.633 67.5115 177.675 68.1195 177.702C68.1195 181.255 68.1195 184.689 68.1195 188.243C58.1923 188.243 48.2974 188.243 38.1688 188.243C38.1688 181.426 38.1688 174.629 38.1689 167.687Z" fill="#112D6C"/>
<path d="M110.207 157.862C108.17 157.862 106.279 157.862 104.221 157.862C104.221 158.622 104.221 159.184 104.221 159.746C104.221 168.669 104.222 177.591 104.22 186.514C104.22 188.361 104.217 188.361 102.277 188.362C98.4683 188.362 94.6598 188.362 90.6793 188.362C90.6793 178.226 90.6793 168.181 90.6793 157.924C87.3759 157.924 84.2364 157.924 80.9989 157.924C80.9989 154.288 80.9989 150.863 80.9989 147.289C81.4951 147.256 81.962 147.197 82.429 147.196C92.4018 147.191 102.375 147.209 112.347 147.17C113.518 147.165 113.994 147.418 113.947 148.67C113.851 151.209 113.848 153.756 113.947 156.295C113.997 157.606 113.515 158.023 112.257 157.875C111.631 157.802 110.988 157.862 110.207 157.862Z" fill="#112D6C"/>
<path d="M22.998 159.047C22.9975 165.138 23.0676 171.086 22.9554 177.03C22.9198 178.918 22.6729 180.89 22.0428 182.66C20.6917 186.454 17.5594 188.11 13.6442 188.281C10.0832 188.436 6.51079 188.359 2.94372 188.336C2.60722 188.334 2.01141 188.021 1.97721 187.79C1.48862 184.486 1.07605 181.171 0.614136 177.621C2.66216 177.621 4.45785 177.645 6.25258 177.615C8.97868 177.569 9.35477 177.175 9.3561 174.48C9.35853 169.493 9.35687 164.505 9.35692 159.517C9.35692 159.044 9.35692 158.572 9.35692 157.862C7.84517 157.862 6.44449 157.814 5.04919 157.879C4.07395 157.923 3.77242 157.553 3.78637 156.629C3.8284 153.848 3.81163 151.066 3.79431 148.284C3.79015 147.615 3.92126 147.185 4.7443 147.187C10.7498 147.203 16.7553 147.196 22.9981 147.196C22.9981 151.173 22.9981 155.038 22.998 159.047Z" fill="#112D6C"/>
<path d="M175.776 174.884C175.776 165.641 175.776 156.541 175.776 147.363C176.216 147.293 176.535 147.199 176.855 147.198C180.617 147.188 184.379 147.214 188.14 147.175C189.06 147.166 189.433 147.392 189.431 148.374C189.402 161.366 189.412 174.357 189.407 187.349C189.407 187.625 189.347 187.901 189.304 188.265C184.825 188.265 180.411 188.265 175.776 188.265C175.776 183.816 175.776 179.422 175.776 174.884Z" fill="#112D6C"/>
</svg>
