<svg width="150" height="30" viewBox="0 0 150 30" fill="none" xmlns="http://www.w3.org/2000/svg">
<path d="M42.8157 15C42.8157 22.8962 36.4145 29.2974 28.5183 29.2974C25.914 29.2974 23.4726 28.6009 21.3696 27.3844C19.2666 28.6009 16.8251 29.2974 14.2209 29.2974C10.0751 29.2974 6.3416 27.5328 3.73014 24.7138H27.0374C27.5312 24.7137 27.9901 24.4589 28.2511 24.0396L32.2883 17.5539C32.4619 17.275 32.7645 17.1027 33.0929 17.0957L36.2687 17.0278C36.8358 17.0156 37.4052 16.9324 37.9312 16.7064C38.3212 16.5389 38.787 16.3065 39.1563 16.0253C39.5226 15.7463 39.8096 15.4074 39.8096 15.0243C39.8096 14.6413 39.5226 14.3023 39.1563 14.0234C38.787 13.7422 38.3211 13.5098 37.9312 13.3423C37.4052 13.1163 36.8358 13.0332 36.2687 13.021L33.0929 12.9531C32.7645 12.9461 32.4619 12.7737 32.2883 12.4948L28.2511 6.00915C27.9901 5.58988 27.5313 5.33495 27.0374 5.33494L3.68534 5.33494C6.29882 2.48761 10.0513 0.702576 14.2209 0.702576C16.8251 0.702576 19.2666 1.399 21.3696 2.61553C23.4726 1.399 25.9141 0.702576 28.5183 0.702576C36.4145 0.702576 42.8157 7.10375 42.8157 15Z" fill="#112D6C"/>
<path d="M28.0114 12.6652C28.1638 13.0761 27.8598 13.513 27.4216 13.513L0 13.513C0.181136 11.7602 0.679023 10.1014 1.43533 8.5947H15.2472C15.4232 8.59469 15.587 8.50479 15.6815 8.35633L16.9322 6.73414C17.0557 6.54011 17.2752 6.42898 17.5047 6.44428L25.3754 6.96893C25.6226 6.98543 25.8372 7.14553 25.9233 7.37785L28.0114 12.6652Z" fill="#112D6C"/>
<path d="M27.4216 16.5441C27.8598 16.5441 28.1638 16.9811 28.0114 17.392L25.9233 22.6793C25.8372 22.9117 25.6226 23.0718 25.3754 23.0883L17.5047 23.6129C17.2752 23.6282 17.0557 23.517 16.9322 23.3229L15.6815 21.7007C15.587 21.5523 15.4231 21.4624 15.2472 21.4624H1.46414C0.699955 19.9569 0.194487 18.298 0.00614329 16.5441L27.4216 16.5441Z" fill="#112D6C"/>
<path d="M143.296 18.3242C142.927 19.8108 142.558 21.2491 142.214 22.6933C142.124 23.0707 141.964 23.2231 141.555 23.2106C140.546 23.1797 139.535 23.1806 138.526 23.2101C138.116 23.2221 137.974 23.0692 137.88 22.6869C137.343 20.5057 136.778 18.3314 136.221 16.1554C136.175 15.9777 136.111 15.8047 135.931 15.6424C135.826 18.1375 135.72 20.6325 135.613 23.1625C133.76 23.1625 131.963 23.1625 130.1 23.1625C130.169 21.863 130.229 20.596 130.305 19.33C130.441 17.0687 130.587 14.8079 130.729 12.5468C130.84 10.7797 130.956 9.01292 131.055 7.2452C131.072 6.95568 131.168 6.84415 131.464 6.84533C133.502 6.85345 135.541 6.85958 137.58 6.84091C137.987 6.83719 138.038 7.08145 138.107 7.36657C138.684 9.73461 139.262 12.1023 139.841 14.4696C139.88 14.6312 139.933 14.7895 140.03 15.1242C140.134 14.8355 140.191 14.7124 140.223 14.583C140.808 12.1975 141.402 9.81425 141.961 7.42259C142.07 6.95508 142.273 6.83139 142.735 6.83795C144.621 6.86476 146.508 6.87103 148.393 6.83481C148.91 6.8249 149.049 7.01306 149.072 7.47451C149.144 8.93872 149.238 10.4019 149.327 11.8652C149.545 15.4186 149.758 18.9724 149.994 22.5246C150.028 23.0373 149.922 23.2294 149.363 23.2138C147.935 23.1739 146.504 23.1758 145.076 23.2135C144.557 23.2272 144.449 23.0526 144.436 22.5676C144.381 20.3972 144.284 18.2279 144.198 16.0584C144.192 15.9017 144.155 15.7462 143.997 15.5851C143.767 16.4828 143.537 17.3805 143.296 18.3242Z" fill="#112D6C"/>
<path d="M111.688 11.1804C111.266 11.2083 110.861 11.1917 110.455 11.175C108.993 11.1144 107.531 11.0278 106.068 11.0043C105.345 10.9926 105.073 11.409 105.346 12.0635C105.409 12.2152 105.734 12.3035 105.952 12.3376C107.078 12.5146 108.222 12.6027 109.335 12.8389C110.868 13.1642 112.22 13.8666 112.772 15.4488C113.57 17.7357 113.389 19.9604 111.933 21.9635C111.648 22.3553 111.164 22.6926 110.703 22.8474C109.79 23.1537 108.837 23.4502 107.885 23.5107C105.2 23.6811 102.519 23.574 99.8719 23.0028C99.4671 22.9155 99.3912 22.7817 99.4666 22.3951C99.685 21.2742 99.8801 20.148 100.045 19.0181C100.107 18.6001 100.255 18.5301 100.646 18.6293C102.737 19.1607 104.858 19.2091 107 19.0369C107.607 18.988 107.495 18.6375 107.527 18.2642C107.565 17.8294 107.382 17.7455 106.98 17.6962C105.566 17.5232 104.142 17.3722 102.757 17.0605C100.926 16.6487 99.9892 15.3467 99.731 13.5386C99.549 12.2641 99.6167 10.9971 99.9248 9.73999C100.289 8.255 101.193 7.31264 102.651 6.86728C104.267 6.37362 105.925 6.35873 107.579 6.47644C108.999 6.57756 110.409 6.82143 111.826 6.98141C112.228 7.02682 112.337 7.20014 112.272 7.58355C112.071 8.7657 111.891 9.9515 111.688 11.1804Z" fill="#112D6C"/>
<path d="M65.3444 14.9888C65.3444 12.4725 65.3584 10.0132 65.3332 7.55436C65.3277 7.02296 65.4484 6.83152 66.0219 6.83598C69.4531 6.86271 72.8845 6.84921 76.3158 6.84919C76.4847 6.84919 76.6535 6.8492 76.9099 6.8492C76.8643 7.20939 76.8324 7.52077 76.7844 7.82967C76.6411 8.75226 76.4744 9.67162 76.3526 10.597C76.3021 10.9808 76.1463 11.1 75.7649 11.0949C74.2973 11.0754 72.8293 11.087 71.3615 11.0871C71.1557 11.0871 70.9499 11.0871 70.6603 11.0871C70.6603 11.7237 70.6346 12.309 70.6828 12.8881C70.692 12.9989 70.9913 13.1674 71.1591 13.1701C72.5503 13.193 73.9423 13.1972 75.3336 13.1747C75.7506 13.168 75.9068 13.2785 75.8955 13.7175C75.8677 14.7994 75.8864 15.8826 75.8864 17.04C74.1301 17.04 72.428 17.04 70.6616 17.04C70.6616 17.6226 70.6312 18.1349 70.6846 18.6383C70.6968 18.7536 70.9969 18.922 71.1663 18.9241C72.9008 18.9453 74.6356 18.9363 76.3703 18.9385C76.5752 18.9387 76.7801 18.9555 77.017 18.9661C77.017 20.3774 77.017 21.7411 77.017 23.1528C73.1481 23.1528 69.2917 23.1528 65.3443 23.1528C65.3443 20.4454 65.3443 17.7457 65.3444 14.9888Z" fill="#112D6C"/>
<path d="M93.4201 11.0871C92.6263 11.0871 91.889 11.0871 91.0871 11.0871C91.0871 11.3887 91.0871 11.6121 91.0871 11.8354C91.0871 15.3791 91.0873 18.9229 91.0869 22.4666C91.0868 23.2001 91.0855 23.2004 90.3294 23.2005C88.8451 23.2007 87.3608 23.2006 85.8095 23.2006C85.8095 19.175 85.8095 15.1853 85.8095 11.1117C84.522 11.1117 83.2985 11.1117 82.0367 11.1117C82.0367 9.66742 82.0367 8.30711 82.0367 6.88767C82.2301 6.87436 82.4121 6.85099 82.5941 6.85088C86.4808 6.84876 90.3675 6.85593 94.2542 6.84033C94.7104 6.8385 94.8959 6.93877 94.8775 7.43607C94.84 8.44446 94.8391 9.45625 94.8775 10.4646C94.8973 10.9852 94.7091 11.1508 94.2191 11.0922C93.975 11.0629 93.7244 11.0871 93.4201 11.0871Z" fill="#112D6C"/>
<path d="M59.4316 11.5571C59.4314 13.9762 59.4587 16.3385 59.4149 18.6996C59.4011 19.4492 59.3048 20.2328 59.0593 20.9354C58.5327 22.4423 57.3119 23.1002 55.7861 23.168C54.3982 23.2297 53.006 23.1991 51.6158 23.1899C51.4847 23.189 51.2524 23.0649 51.2391 22.973C51.0487 21.6608 50.8879 20.3443 50.7079 18.9341C51.5061 18.9341 52.2059 18.9439 52.9054 18.9318C53.9678 18.9136 54.1144 18.7572 54.1149 17.6868C54.1158 15.7059 54.1152 13.7249 54.1152 11.744C54.1152 11.5562 54.1152 11.3683 54.1152 11.0866C53.526 11.0866 52.9801 11.0676 52.4364 11.0931C52.0563 11.1109 51.9388 10.9637 51.9442 10.5967C51.9606 9.49221 51.954 8.38729 51.9473 7.28258C51.9457 7.01664 51.9968 6.84608 52.3175 6.8469C54.658 6.8529 56.9986 6.85013 59.4316 6.85013C59.4316 8.42999 59.4316 9.96496 59.4316 11.5571Z" fill="#112D6C"/>
<path d="M118.973 17.8479C118.973 14.1766 118.973 10.5624 118.973 6.91737C119.144 6.88959 119.269 6.85209 119.394 6.85174C120.86 6.84759 122.326 6.85792 123.792 6.84261C124.15 6.83887 124.295 6.92865 124.295 7.31889C124.284 12.4787 124.287 17.6385 124.285 22.7984C124.285 22.9081 124.262 23.0179 124.245 23.1622C122.5 23.1622 120.779 23.1622 118.973 23.1622C118.973 21.3952 118.973 19.6502 118.973 17.8479Z" fill="#112D6C"/>
</svg>
