<svg width="25" height="24" viewBox="0 0 25 24" fill="none" xmlns="http://www.w3.org/2000/svg">
<g clip-path="url(#clip0_231_7063)">
<path d="M3.33301 12C3.33301 12.7956 3.64908 13.5587 4.21169 14.1213C4.7743 14.6839 5.53736 15 6.33301 15C7.12866 15 7.89172 14.6839 8.45433 14.1213C9.01694 13.5587 9.33301 12.7956 9.33301 12C9.33301 11.2044 9.01694 10.4413 8.45433 9.87868C7.89172 9.31607 7.12866 9 6.33301 9C5.53736 9 4.7743 9.31607 4.21169 9.87868C3.64908 10.4413 3.33301 11.2044 3.33301 12Z" stroke="white" stroke-width="2" stroke-linecap="round" stroke-linejoin="round"/>
<path d="M15.333 6C15.333 6.79565 15.6491 7.55871 16.2117 8.12132C16.7743 8.68393 17.5374 9 18.333 9C19.1287 9 19.8917 8.68393 20.4543 8.12132C21.0169 7.55871 21.333 6.79565 21.333 6C21.333 5.20435 21.0169 4.44129 20.4543 3.87868C19.8917 3.31607 19.1287 3 18.333 3C17.5374 3 16.7743 3.31607 16.2117 3.87868C15.6491 4.44129 15.333 5.20435 15.333 6Z" stroke="white" stroke-width="2" stroke-linecap="round" stroke-linejoin="round"/>
<path d="M15.333 18C15.333 18.7956 15.6491 19.5587 16.2117 20.1213C16.7743 20.6839 17.5374 21 18.333 21C19.1287 21 19.8917 20.6839 20.4543 20.1213C21.0169 19.5587 21.333 18.7956 21.333 18C21.333 17.2044 21.0169 16.4413 20.4543 15.8787C19.8917 15.3161 19.1287 15 18.333 15C17.5374 15 16.7743 15.3161 16.2117 15.8787C15.6491 16.4413 15.333 17.2044 15.333 18Z" stroke="white" stroke-width="2" stroke-linecap="round" stroke-linejoin="round"/>
<path d="M9.0332 10.7L15.6332 7.29999" stroke="white" stroke-width="2" stroke-linecap="round" stroke-linejoin="round"/>
<path d="M9.0332 13.3L15.6332 16.7" stroke="white" stroke-width="2" stroke-linecap="round" stroke-linejoin="round"/>
</g>
<defs>
<clipPath id="clip0_231_7063">
<rect width="24" height="24" fill="white" transform="translate(0.333008)"/>
</clipPath>
</defs>
</svg>
