<svg width="49" height="39" viewBox="0 0 49 39" fill="none" xmlns="http://www.w3.org/2000/svg">
<g filter="url(#filter0_d_178_152)">
<g clip-path="url(#clip0_178_152)">
<mask id="mask0_178_152" style="mask-type:luminance" maskUnits="userSpaceOnUse" x="4" y="2" width="41" height="30">
<rect x="4.5" y="2" width="40" height="30" fill="white"/>
</mask>
<g mask="url(#mask0_178_152)">
<path fill-rule="evenodd" clip-rule="evenodd" d="M4.5 2V32H44.5V2H4.5Z" fill="#E31D1C"/>
<mask id="mask1_178_152" style="mask-type:luminance" maskUnits="userSpaceOnUse" x="4" y="2" width="41" height="30">
<path fill-rule="evenodd" clip-rule="evenodd" d="M4.5 2V32H44.5V2H4.5Z" fill="white"/>
</mask>
<g mask="url(#mask1_178_152)">
<path d="M24.1877 7.10731C26.5038 7.10343 29.3296 8.45145 30.143 10.3711C30.143 10.3711 27.5522 8.87839 24.6098 9.58177C21.6674 10.2852 19.8056 12.8837 19.7829 15.958C19.7585 19.2422 21.8555 21.4823 24.5321 22.1417C27.2087 22.801 30.0298 21.2331 30.0298 21.2331C29.686 22.2515 28.0262 24.6461 24.5271 24.6519C20.1624 24.6592 15.2002 21.5018 15.2412 15.9582C15.2808 10.611 19.8762 7.11469 24.1877 7.10731ZM32.5118 14.303L35.2859 13.3687L33.5821 15.7484L36.1781 17.9798L32.9029 17.742L30.9197 20.1207L30.9708 16.9494L27.9626 15.8875L30.6295 14.9082L30.5287 12.098L32.5118 14.303Z" fill="#F7FCFF"/>
</g>
</g>
<rect x="4.5" y="2" width="40" height="30" fill="url(#paint0_linear_178_152)" style="mix-blend-mode:overlay"/>
</g>
<rect x="5.125" y="2.625" width="38.75" height="28.75" rx="1.875" stroke="black" stroke-opacity="0.1" stroke-width="1.25" style="mix-blend-mode:multiply"/>
</g>
<defs>
<filter id="filter0_d_178_152" x="0.75" y="0.75" width="47.5" height="37.5" filterUnits="userSpaceOnUse" color-interpolation-filters="sRGB">
<feFlood flood-opacity="0" result="BackgroundImageFix"/>
<feColorMatrix in="SourceAlpha" type="matrix" values="0 0 0 0 0 0 0 0 0 0 0 0 0 0 0 0 0 0 127 0" result="hardAlpha"/>
<feOffset dy="2.5"/>
<feGaussianBlur stdDeviation="1.875"/>
<feColorMatrix type="matrix" values="0 0 0 0 0 0 0 0 0 0 0 0 0 0 0 0 0 0 0.1 0"/>
<feBlend mode="normal" in2="BackgroundImageFix" result="effect1_dropShadow_178_152"/>
<feBlend mode="normal" in="SourceGraphic" in2="effect1_dropShadow_178_152" result="shape"/>
</filter>
<linearGradient id="paint0_linear_178_152" x1="24.5" y1="2" x2="24.5" y2="32" gradientUnits="userSpaceOnUse">
<stop stop-color="white" stop-opacity="0.7"/>
<stop offset="1" stop-opacity="0.3"/>
</linearGradient>
<clipPath id="clip0_178_152">
<rect x="4.5" y="2" width="40" height="30" rx="2.5" fill="white"/>
</clipPath>
</defs>
</svg>
