<svg width="150" height="29" viewBox="0 0 150 29" fill="none" xmlns="http://www.w3.org/2000/svg">
<path d="M42.8157 14.2974C42.8157 22.1937 36.4145 28.5948 28.5183 28.5948C25.914 28.5948 23.4726 27.8983 21.3696 26.6818C19.2666 27.8983 16.8251 28.5948 14.2209 28.5948C10.0751 28.5948 6.3416 26.8302 3.73014 24.0112H27.0374C27.5312 24.0112 27.9901 23.7563 28.2511 23.3371L32.2883 16.8513C32.4619 16.5725 32.7645 16.4001 33.0929 16.3931L36.2687 16.3252C36.8358 16.3131 37.4052 16.2298 37.9312 16.0038C38.3212 15.8364 38.787 15.604 39.1563 15.3227C39.5226 15.0438 39.8096 14.7049 39.8096 14.3218C39.8096 13.9387 39.5226 13.5998 39.1563 13.3208C38.787 13.0396 38.3211 12.8072 37.9312 12.6397C37.4052 12.4137 36.8358 12.3306 36.2687 12.3185L33.0929 12.2505C32.7645 12.2435 32.4619 12.0711 32.2883 11.7922L28.2511 5.30658C27.9901 4.88731 27.5313 4.63237 27.0374 4.63236L3.68534 4.63236C6.29882 1.78503 10.0513 0 14.2209 0C16.8251 0 19.2666 0.696421 21.3696 1.91295C23.4726 0.696421 25.9141 6.2496e-07 28.5183 6.2496e-07C36.4145 6.2496e-07 42.8157 6.40117 42.8157 14.2974Z" fill="white"/>
<path d="M28.0114 11.9626C28.1638 12.3736 27.8598 12.8104 27.4216 12.8104L0 12.8104C0.181136 11.0576 0.679023 9.39882 1.43533 7.89212H15.2472C15.4232 7.89212 15.587 7.80222 15.6815 7.65376L16.9322 6.03156C17.0557 5.83753 17.2752 5.7264 17.5047 5.7417L25.3754 6.26635C25.6226 6.28285 25.8372 6.44295 25.9233 6.67528L28.0114 11.9626Z" fill="white"/>
<path d="M27.4216 15.8415C27.8598 15.8415 28.1638 16.2785 28.0114 16.6894L25.9233 21.9768C25.8372 22.2091 25.6226 22.3692 25.3754 22.3857L17.5047 22.9103C17.2752 22.9256 17.0557 22.8144 16.9322 22.6204L15.6815 20.9982C15.587 20.8497 15.4231 20.7598 15.2472 20.7598H1.46414C0.699955 19.2543 0.194487 17.5954 0.00614329 15.8415L27.4216 15.8415Z" fill="white"/>
<path d="M143.296 17.6216C142.927 19.1082 142.558 20.5465 142.214 21.9907C142.124 22.3681 141.964 22.5205 141.555 22.508C140.546 22.4771 139.535 22.478 138.526 22.5075C138.116 22.5195 137.974 22.3666 137.88 21.9843C137.343 19.8031 136.778 17.6288 136.221 15.4528C136.175 15.2751 136.111 15.1021 135.931 14.9398C135.826 17.4349 135.72 19.9299 135.613 22.4599C133.76 22.4599 131.963 22.4599 130.1 22.4599C130.169 21.1604 130.229 19.8934 130.305 18.6274C130.441 16.366 130.587 14.1053 130.729 11.8442C130.84 10.0771 130.956 8.31032 131.055 6.54259C131.072 6.25308 131.168 6.14155 131.464 6.14273C133.502 6.15085 135.541 6.15697 137.58 6.1383C137.987 6.13458 138.038 6.37884 138.107 6.66396C138.684 9.03201 139.262 11.3997 139.841 13.767C139.88 13.9286 139.933 14.0869 140.03 14.4216C140.134 14.1329 140.191 14.0098 140.223 13.8804C140.808 11.4949 141.402 9.11165 141.961 6.71999C142.07 6.25248 142.273 6.12878 142.735 6.13534C144.621 6.16216 146.508 6.16843 148.393 6.13221C148.91 6.12229 149.049 6.31046 149.072 6.7719C149.144 8.23611 149.238 9.69927 149.327 11.1626C149.545 14.716 149.758 18.2698 149.994 21.822C150.028 22.3347 149.922 22.5268 149.363 22.5112C147.935 22.4713 146.504 22.4732 145.076 22.5109C144.557 22.5246 144.449 22.35 144.436 21.865C144.381 19.6946 144.284 17.5253 144.198 15.3558C144.192 15.1991 144.155 15.0436 143.997 14.8825C143.767 15.7802 143.537 16.6779 143.296 17.6216Z" fill="white"/>
<path d="M111.688 10.4778C111.266 10.5057 110.861 10.4891 110.455 10.4723C108.993 10.4118 107.531 10.3252 106.068 10.3016C105.345 10.29 105.073 10.7064 105.346 11.3609C105.409 11.5126 105.734 11.6008 105.952 11.635C107.078 11.812 108.222 11.9001 109.335 12.1363C110.868 12.4616 112.22 13.164 112.772 14.7462C113.57 17.0331 113.389 19.2577 111.933 21.2609C111.648 21.6527 111.164 21.99 110.703 22.1448C109.79 22.4511 108.837 22.7476 107.885 22.8081C105.2 22.9785 102.519 22.8714 99.8719 22.3002C99.4671 22.2129 99.3912 22.0791 99.4666 21.6925C99.685 20.5716 99.8801 19.4454 100.045 18.3155C100.107 17.8975 100.255 17.8275 100.646 17.9267C102.737 18.4581 104.858 18.5065 107 18.3343C107.607 18.2854 107.495 17.9349 107.527 17.5616C107.565 17.1268 107.382 17.0429 106.98 16.9936C105.566 16.8206 104.142 16.6696 102.757 16.3579C100.926 15.9461 99.9892 14.6441 99.731 12.836C99.549 11.5615 99.6167 10.2945 99.9248 9.03738C100.289 7.55239 101.193 6.61004 102.651 6.16467C104.267 5.67102 105.925 5.65613 107.579 5.77383C108.999 5.87496 110.409 6.11882 111.826 6.2788C112.228 6.32422 112.337 6.49753 112.272 6.88094C112.071 8.0631 111.891 9.24889 111.688 10.4778Z" fill="white"/>
<path d="M65.3444 14.2862C65.3444 11.7699 65.3584 9.31062 65.3332 6.85175C65.3277 6.32035 65.4484 6.12892 66.0219 6.13338C69.4531 6.16011 72.8845 6.1466 76.3158 6.14659C76.4847 6.14659 76.6535 6.14659 76.9099 6.14659C76.8643 6.50679 76.8324 6.81817 76.7844 7.12706C76.6411 8.04966 76.4744 8.96901 76.3526 9.89435C76.3021 10.2782 76.1463 10.3974 75.7649 10.3923C74.2973 10.3728 72.8293 10.3844 71.3615 10.3845C71.1557 10.3845 70.9499 10.3845 70.6603 10.3845C70.6603 11.0211 70.6346 11.6064 70.6828 12.1855C70.692 12.2963 70.9913 12.4648 71.1591 12.4675C72.5503 12.4904 73.9423 12.4946 75.3336 12.4721C75.7506 12.4654 75.9068 12.5759 75.8955 13.0149C75.8677 14.0968 75.8864 15.18 75.8864 16.3374C74.1301 16.3374 72.428 16.3374 70.6616 16.3374C70.6616 16.92 70.6312 17.4323 70.6846 17.9357C70.6968 18.051 70.9969 18.2194 71.1663 18.2215C72.9008 18.2427 74.6356 18.2337 76.3703 18.2359C76.5752 18.2361 76.7801 18.2529 77.017 18.2635C77.017 19.6748 77.017 21.0385 77.017 22.4502C73.1481 22.4502 69.2917 22.4502 65.3443 22.4502C65.3443 19.7428 65.3443 17.0431 65.3444 14.2862Z" fill="white"/>
<path d="M93.4201 10.3845C92.6263 10.3845 91.889 10.3845 91.0871 10.3845C91.0871 10.6861 91.0871 10.9095 91.0871 11.1328C91.0871 14.6765 91.0873 18.2203 91.0869 21.764C91.0868 22.4975 91.0855 22.4978 90.3294 22.4979C88.8451 22.4981 87.3608 22.498 85.8095 22.498C85.8095 18.4724 85.8095 14.4827 85.8095 10.4091C84.522 10.4091 83.2985 10.4091 82.0367 10.4091C82.0367 8.96482 82.0367 7.6045 82.0367 6.18507C82.2301 6.17175 82.4121 6.14838 82.5941 6.14828C86.4808 6.14615 90.3675 6.15332 94.2542 6.13772C94.7104 6.13589 94.8959 6.23616 94.8775 6.73346C94.84 7.74186 94.8391 8.75364 94.8775 9.76197C94.8973 10.2826 94.7091 10.4482 94.2191 10.3895C93.975 10.3603 93.7244 10.3845 93.4201 10.3845Z" fill="white"/>
<path d="M59.4316 10.8545C59.4314 13.2736 59.4587 15.6359 59.4149 17.997C59.4011 18.7466 59.3048 19.5302 59.0593 20.2328C58.5327 21.7396 57.3119 22.3976 55.7861 22.4654C54.3982 22.5271 53.006 22.4965 51.6158 22.4873C51.4847 22.4864 51.2524 22.3623 51.2391 22.2704C51.0487 20.9582 50.8879 19.6417 50.7079 18.2315C51.5061 18.2315 52.2059 18.2413 52.9054 18.2292C53.9678 18.211 54.1144 18.0546 54.1149 16.9842C54.1158 15.0033 54.1152 13.0223 54.1152 11.0414C54.1152 10.8536 54.1152 10.6657 54.1152 10.384C53.526 10.384 52.9801 10.365 52.4364 10.3905C52.0563 10.4083 51.9388 10.2611 51.9442 9.8941C51.9606 8.7896 51.954 7.68468 51.9473 6.57998C51.9457 6.31403 51.9968 6.14347 52.3175 6.14429C54.658 6.15029 56.9986 6.14752 59.4316 6.14752C59.4316 7.72738 59.4316 9.26236 59.4316 10.8545Z" fill="white"/>
<path d="M118.973 17.1453C118.973 13.474 118.973 9.85983 118.973 6.21476C119.144 6.18698 119.269 6.14948 119.394 6.14913C120.86 6.14499 122.326 6.15531 123.792 6.14C124.15 6.13626 124.295 6.22605 124.295 6.61628C124.284 11.7761 124.287 16.9359 124.285 22.0958C124.285 22.2055 124.262 22.3153 124.245 22.4596C122.5 22.4596 120.779 22.4596 118.973 22.4596C118.973 20.6926 118.973 18.9476 118.973 17.1453Z" fill="white"/>
</svg>
